{
    "asset" : {
        "generator" : "Khronos glTF Blender I/O v1.5.17",
        "version" : "2.0"
    },
    "scene" : 0,
    "scenes" : [
        {
            "name" : "Scene",
            "nodes" : [
                0
            ]
        }
    ],
    "nodes" : [
        {
            "mesh" : 0,
            "name" : "Grid"
        }
    ],
    "materials" : [
        {
            "doubleSided" : true,
            "name" : "snow",
            "pbrMetallicRoughness" : {
                "baseColorFactor" : [
                    0.800000011920929,
                    0.800000011920929,
                    0.800000011920929,
                    1
                ],
                "metallicFactor" : 0,
                "roughnessFactor" : 0.5
            }
        },
        {
            "doubleSided" : true,
            "name" : "hut",
            "pbrMetallicRoughness" : {
                "baseColorFactor" : [
                    0.11927607655525208,
                    0.11927607655525208,
                    0.11927607655525208,
                    1
                ],
                "metallicFactor" : 0,
                "roughnessFactor" : 0.5
            }
        }
    ],
    "meshes" : [
        {
            "name" : "Grid.001",
            "primitives" : [
                {
                    "attributes" : {
                        "POSITION" : 0,
                        "NORMAL" : 1,
                        "TEXCOORD_0" : 2
                    },
                    "indices" : 3,
                    "material" : 0
                },
                {
                    "attributes" : {
                        "POSITION" : 4,
                        "NORMAL" : 5,
                        "TEXCOORD_0" : 6
                    },
                    "indices" : 7,
                    "material" : 1
                }
            ]
        }
    ],
    "accessors" : [
        {
            "bufferView" : 0,
            "componentType" : 5126,
            "count" : 4792,
            "max" : [
                206.69183349609375,
                51.34701919555664,
                151.80123901367188
            ],
            "min" : [
                -228.38836669921875,
                -17.536029815673828,
                -142.476318359375
            ],
            "type" : "VEC3"
        },
        {
            "bufferView" : 1,
            "componentType" : 5126,
            "count" : 4792,
            "type" : "VEC3"
        },
        {
            "bufferView" : 2,
            "componentType" : 5126,
            "count" : 4792,
            "type" : "VEC2"
        },
        {
            "bufferView" : 3,
            "componentType" : 5123,
            "count" : 7482,
            "type" : "SCALAR"
        },
        {
            "bufferView" : 4,
            "componentType" : 5126,
            "count" : 541,
            "max" : [
                203.21726989746094,
                30.016551971435547,
                151.80123901367188
            ],
            "min" : [
                -188.2847900390625,
                -25.87211799621582,
                -142.476318359375
            ],
            "type" : "VEC3"
        },
        {
            "bufferView" : 5,
            "componentType" : 5126,
            "count" : 541,
            "type" : "VEC3"
        },
        {
            "bufferView" : 6,
            "componentType" : 5126,
            "count" : 541,
            "type" : "VEC2"
        },
        {
            "bufferView" : 7,
            "componentType" : 5123,
            "count" : 912,
            "type" : "SCALAR"
        }
    ],
    "bufferViews" : [
        {
            "buffer" : 0,
            "byteLength" : 57504,
            "byteOffset" : 0
        },
        {
            "buffer" : 0,
            "byteLength" : 57504,
            "byteOffset" : 57504
        },
        {
            "buffer" : 0,
            "byteLength" : 38336,
            "byteOffset" : 115008
        },
        {
            "buffer" : 0,
            "byteLength" : 14964,
            "byteOffset" : 153344
        },
        {
            "buffer" : 0,
            "byteLength" : 6492,
            "byteOffset" : 168308
        },
        {
            "buffer" : 0,
            "byteLength" : 6492,
            "byteOffset" : 174800
        },
        {
            "buffer" : 0,
            "byteLength" : 4328,
            "byteOffset" : 181292
        },
        {
            "buffer" : 0,
            "byteLength" : 1824,
            "byteOffset" : 185620
        }
    ],
    "buffers" : [
        {
            "byteLength" : 187444,
            "uri" : "data:application/octet-stream;base64,"
        }
    ]
}
